<?xml version="1.0" encoding="UTF-8" standalone="no"?>
<svg
   xmlns:dc="http://purl.org/dc/elements/1.1/"
   xmlns:cc="http://creativecommons.org/ns#"
   xmlns:rdf="http://www.w3.org/1999/02/22-rdf-syntax-ns#"
   xmlns:svg="http://www.w3.org/2000/svg"
   xmlns="http://www.w3.org/2000/svg"
   xmlns:sodipodi="http://sodipodi.sourceforge.net/DTD/sodipodi-0.dtd"
   xmlns:inkscape="http://www.inkscape.org/namespaces/inkscape"
   version="1.0"
   width="461.000000pt"
   height="306.000000pt"
   viewBox="0 0 461.000000 306.000000"
   preserveAspectRatio="xMidYMid meet"
   id="svg14"
   sodipodi:docname="Morph_Logo_Example_One.svg"
   inkscape:version="0.92.4 (unknown)">
  <metadata
     id="metadata20">
    <rdf:RDF>
      <cc:Work
         rdf:about="">
        <dc:format>image/svg+xml</dc:format>
        <dc:type
           rdf:resource="http://purl.org/dc/dcmitype/StillImage" />
      </cc:Work>
    </rdf:RDF>
  </metadata>
  <defs
     id="defs18" />
  <sodipodi:namedview
     pagecolor="#ffffff"
     bordercolor="#666666"
     borderopacity="1"
     objecttolerance="10"
     gridtolerance="10"
     guidetolerance="10"
     inkscape:pageopacity="0"
     inkscape:pageshadow="2"
     inkscape:window-width="1920"
     inkscape:window-height="1028"
     id="namedview16"
     showgrid="false"
     inkscape:zoom="0.4164859"
     inkscape:cx="69.630208"
     inkscape:cy="204"
     inkscape:window-x="0"
     inkscape:window-y="26"
     inkscape:window-maximized="1"
     inkscape:current-layer="svg14" />
  <g
     transform="matrix(0.1,0,0,-0.1,10.804687,313.20312)"
     id="g12"
     style="fill:#4472c4;fill-opacity:1;stroke:none">
    <path
       d="M 1593,2676 C 1515,2544 1160,1942 804,1340 449,738 155,239 153,233 c -4,-10 73,-13 364,-13 h 370 l 434,735 c 239,404 439,735 445,735 6,0 15,-10 21,-22 6,-13 135,-234 288,-493 153,-258 278,-474 278,-480 0,-5 -57,-107 -127,-225 -70,-118 -132,-222 -137,-232 -9,-17 1,-18 198,-18 h 208 l 254,430 c 140,237 259,434 264,437 5,3 12,0 16,-6 3,-6 119,-202 256,-436 l 250,-425 h 358 c 196,0 357,2 357,5 0,5 -1070,1817 -1079,1828 -4,4 -33,-38 -65,-93 -33,-55 -62,-100 -67,-100 -4,0 -63,96 -131,213 -83,144 -123,222 -124,244 -1,19 -21,66 -48,114 l -48,82 29,23 c 84,70 350,178 588,240 l 110,29 -50,8 c -164,26 -472,-36 -650,-132 -74,-40 -97,-41 -131,-9 l -22,20 -75,-43 c -71,-41 -75,-45 -70,-74 4,-30 2,-31 -182,-135 -103,-58 -191,-108 -197,-111 -6,-4 9,-40 37,-88 45,-78 48,-81 69,-68 204,132 349,217 369,217 20,0 33,-13 65,-67 22,-38 51,-72 63,-78 16,-7 72,-95 173,-269 148,-256 149,-258 133,-285 -9,-14 -65,-108 -124,-208 -59,-101 -112,-183 -117,-183 -6,1 -107,165 -225,366 -169,287 -218,363 -230,358 -9,-4 -44,-9 -79,-12 -67,-5 -92,6 -92,39 0,16 -8,19 -41,19 -50,0 -79,15 -79,40 0,15 -10,20 -44,25 -47,7 -44,3 -83,101 -2,7 12,22 32,34 35,21 47,41 61,94 5,21 0,26 -30,36 -20,6 -38,16 -41,21 -4,5 19,36 50,68 l 56,59 -106,178 c -58,98 -109,181 -113,185 -4,4 -71,-102 -149,-235 z"
       id="path2"
       style="fill:#4472c4;fill-opacity:1"
       inkscape:connector-curvature="0" />
    <path
       d="m 2134,2725 c -9,-23 3,-45 25,-45 23,0 35,28 20,46 -15,18 -38,18 -45,-1 z"
       id="path4"
       style="fill:#4472c4;fill-opacity:1"
       inkscape:connector-curvature="0" />
    <path
       d="m 2006,2665 c -7,-19 20,-46 39,-39 8,4 15,17 15,30 0,19 -5,24 -24,24 -13,0 -26,-7 -30,-15 z"
       id="path6"
       style="fill:#4472c4;fill-opacity:1"
       inkscape:connector-curvature="0" />
    <path
       d="m 2156,2575 c -3,-8 2,-21 10,-29 20,-20 44,-9 44,20 0,19 -5,24 -24,24 -13,0 -26,-7 -30,-15 z"
       id="path8"
       style="fill:#4472c4;fill-opacity:1"
       inkscape:connector-curvature="0" />
    <path
       d="m 2004,2495 c -8,-21 2,-45 19,-45 8,0 20,7 27,15 10,12 10,18 0,30 -7,8 -19,15 -27,15 -7,0 -16,-7 -19,-15 z"
       id="path10"
       style="fill:#4472c4;fill-opacity:1"
       inkscape:connector-curvature="0" />
  </g>
</svg>
