<?xml version="1.0" encoding="UTF-8" standalone="no"?>
<svg
   xmlns:dc="http://purl.org/dc/elements/1.1/"
   xmlns:cc="http://creativecommons.org/ns#"
   xmlns:rdf="http://www.w3.org/1999/02/22-rdf-syntax-ns#"
   xmlns:svg="http://www.w3.org/2000/svg"
   xmlns="http://www.w3.org/2000/svg"
   xmlns:sodipodi="http://sodipodi.sourceforge.net/DTD/sodipodi-0.dtd"
   xmlns:inkscape="http://www.inkscape.org/namespaces/inkscape"
   version="1.0"
   width="1077.000000pt"
   height="766.000000pt"
   viewBox="0 0 1077.000000 766.000000"
   preserveAspectRatio="xMidYMid meet"
   id="svg36"
   sodipodi:docname="morph-text-logo.svg"
   inkscape:version="0.92.4 (unknown)">
  <metadata
     id="metadata42">
    <rdf:RDF>
      <cc:Work
         rdf:about="">
        <dc:format>image/svg+xml</dc:format>
        <dc:type
           rdf:resource="http://purl.org/dc/dcmitype/StillImage" />
      </cc:Work>
    </rdf:RDF>
  </metadata>
  <defs
     id="defs40" />
  <sodipodi:namedview
     pagecolor="#ffffff"
     bordercolor="#666666"
     borderopacity="1"
     objecttolerance="10"
     gridtolerance="10"
     guidetolerance="10"
     inkscape:pageopacity="0"
     inkscape:pageshadow="2"
     inkscape:window-width="1920"
     inkscape:window-height="1028"
     id="namedview38"
     showgrid="false"
     inkscape:zoom="0.50423213"
     inkscape:cx="349.05263"
     inkscape:cy="403.03322"
     inkscape:window-x="0"
     inkscape:window-y="26"
     inkscape:window-maximized="1"
     inkscape:current-layer="svg36" />
  <path
     style="fill:#4472c4;stroke:none;stroke-width:0.1;fill-opacity:1"
     inkscape:connector-curvature="0"
     id="path2"
     d="m 398.1,60.6 c -0.3,0.9 -26.3,45.1 -57.8,98.2 -66.7,112.9 -165.8,280.5 -179.8,304.2 -5.4,9.1 -28.7,48.5 -51.9,87.7 -23.1,39.2 -42.1,71.5 -42.1,71.8 0,0.3 35.2,0.4 78.2,0.3 l 78.2,-0.3 22.5,-38 c 12.3,-20.9 47.1,-79.9 77.4,-131 47.5,-80.4 62.5,-105.7 78.1,-132.3 1.7,-2.8 3.3,-5.2 3.6,-5.2 0.6,0 -4.5,-8.6 66.4,111.3 31.1,52.7 56.6,96 56.6,96.2 0,0.3 -13,22.5 -29,49.5 -15.9,26.9 -29,49.2 -29,49.5 0,0.3 19.9,0.4 44.2,0.3 l 44.2,-0.3 47,-79.5 c 25.9,-43.8 50,-84.4 53.5,-90.3 3.5,-6 6.7,-10.7 7.2,-10.5 0.5,0.2 3.8,5.2 7.4,11.3 3.5,6 27.5,46.6 53.2,90.2 l 46.8,79.2 75.8,0.1 h 75.8 l -1.2,-2.3 c -0.7,-1.2 -12.8,-21.8 -26.9,-45.7 -31,-52.4 -136,-230 -172.8,-292.2 -14.5,-24.7 -26.7,-44.6 -27.1,-44.4 -0.4,0.3 -6.3,9.9 -13.1,21.5 -6.8,11.6 -12.7,21.1 -13.1,21.1 -0.4,0 -12.7,-20.6 -27.4,-45.7 l -26.6,-45.7 1.1,-4.6 1.1,-4.6 -10.1,-17.4 -10.2,-17.5 2.9,-2.3 c 9.7,-8 26.7,-17.7 46.3,-26.2 19.3,-8.4 68.4,-24 96.3,-30.5 4.2,-1 7.7,-2.2 7.7,-2.6 0,-2.8 -50.5,-3.1 -68,-0.5 -14.1,2.2 -35.8,7.6 -49.4,12.3 -10.8,3.7 -31.7,13.4 -39.8,18.3 -4.4,2.7 -5.5,3 -9.9,2.4 -4.6,-0.6 -5.4,-1.2 -8.6,-5.4 l -3.6,-4.8 -16.6,9.6 c -9.1,5.2 -16.7,9.7 -16.9,9.8 -0.2,0.1 0.4,2.6 1.2,5.5 1.3,4.3 1.4,5.5 0.4,6.5 -0.7,0.7 -19.3,11.4 -41.3,23.9 -22,12.5 -40.1,22.8 -40.3,23 -0.4,0.3 20.2,34.5 20.9,34.5 0.3,0 17.8,-10.8 38.8,-24 22,-13.8 39.2,-24 40.6,-24 5.4,0 7.1,1.7 14.8,14.8 6.9,11.8 8,13.1 11.4,14.2 5.3,1.8 5.5,2 12.4,13.8 3.4,5.9 9.4,16.3 13.4,23.2 30.9,53.1 42.5,73.4 42.3,74 -1.7,4.2 -51.6,87 -52.4,87 -0.7,0 -1.4,-0.7 -1.8,-1.5 -0.4,-1.3 -88.3,-150.2 -89.2,-151.4 -0.1,-0.1 -3.9,0.9 -8.2,2.3 -7.7,2.6 -8.4,2.7 -18.2,1.6 -5.6,-0.5 -10.4,-1 -10.6,-1 -0.2,0 -0.4,-2.2 -0.4,-5 0,-5.8 0.8,-5.4 -14.3,-6.8 -5.4,-0.5 -10,-1.2 -10.4,-1.5 -0.3,-0.4 -0.8,-2.9 -1.1,-5.7 -0.2,-2.7 -0.8,-5 -1.3,-5 -3.1,0 -16.6,-2.3 -17.3,-3 -0.9,-0.9 -8.6,-18 -8.6,-19.2 0,-0.4 3.6,-3.3 8,-6.3 l 7.9,-5.6 2.6,-8.3 c 1.4,-4.6 2.5,-8.8 2.5,-9.4 0,-0.5 -2.6,-2 -5.7,-3.2 -3.2,-1.3 -7,-2.9 -8.6,-3.7 l -2.7,-1.4 3.9,-5.7 c 2.1,-3.1 7.3,-8.6 11.5,-12.1 4.2,-3.5 7.6,-6.8 7.6,-7.4 0,-1.3 -46.3,-79.7 -47.1,-79.7 -0.4,0 -1,0.7 -1.3,1.6 z" />
  <path
     style="fill:#4472c4;stroke:none;stroke-width:0.1;fill-opacity:1"
     inkscape:connector-curvature="0"
     id="path4"
     d="m 483.6,99.1 c -5.2,4.1 -2.3,12.2 4.4,12.2 6.7,0 9.6,-8.1 4.4,-12.2 C 490.9,97.9 489,97 488,97 c -1,0 -2.9,0.9 -4.4,2.1 z" />
  <path
     style="fill:#4472c4;stroke:none;stroke-width:0.1;fill-opacity:1"
     inkscape:connector-curvature="0"
     id="path6"
     d="m 457.6,110.6 c -2.5,2.4 -2.1,9 0.6,10.8 7.1,5 15.9,-4.3 9.8,-10.4 -2.4,-2.4 -8.2,-2.7 -10.4,-0.4 z" />
  <path
     style="fill:#4472c4;stroke:none;stroke-width:0.1;fill-opacity:1"
     inkscape:connector-curvature="0"
     id="path8"
     d="m 490.4,128.2 c -1.2,0.5 -2.7,2.2 -3.3,3.6 -3.3,7.1 7,13.1 12.2,7 2.4,-2.8 2.1,-6.5 -0.8,-9.3 -2.6,-2.7 -4.7,-3 -8.1,-1.3 z" />
  <path
     style="fill:#4472c4;stroke:none;stroke-width:0.1;fill-opacity:1"
     inkscape:connector-curvature="0"
     id="path10"
     d="m 456,147 c -2.6,2.6 -2.6,8.1 -0.2,10.3 1,1 3.3,1.7 5,1.7 6.7,0 9.7,-7.9 4.6,-11.9 -3.4,-2.6 -6.8,-2.7 -9.4,-0.1 z" />
  <path
     style="fill:#767171;stroke:none;stroke-width:0.1;fill-opacity:1"
     inkscape:connector-curvature="0"
     id="path12"
     d="m 733.2,207.9 c -15.6,9.3 -28.8,17.3 -29.3,17.8 -0.7,0.7 -0.4,2 0.8,4 l 1.8,3 25.3,-14.9 c 14,-8.2 25.5,-14.8 25.7,-14.6 0.2,0.2 -8.2,12 -18.6,26.2 -11,14.9 -18.8,26.4 -18.5,27.3 0.3,0.7 1.2,1.6 1.9,1.9 0.8,0.3 15.2,-1.3 32.2,-3.6 17,-2.2 31,-3.8 31.3,-3.6 0.3,0.4 -10.7,7 -44.5,27 -2.9,1.7 -5.3,3.5 -5.3,4.1 0,0.5 0.9,2.1 1.9,3.4 l 1.8,2.3 30.1,-17.7 30.1,-17.7 -3.1,-4.9 c -1.6,-2.7 -3.3,-4.9 -3.6,-4.9 -0.4,0 -13.7,1.6 -29.5,3.6 -15.9,1.9 -29.1,3.3 -29.4,3 -0.3,-0.3 7.4,-11.4 17.1,-24.7 l 17.6,-24.1 -2.8,-4.9 c -1.5,-2.7 -3.1,-4.9 -3.7,-4.8 -0.5,0 -13.7,7.6 -29.3,16.8 z" />
  <path
     style="fill:#767171;stroke:none;stroke-width:0.1;fill-opacity:1"
     inkscape:connector-curvature="0"
     id="path14"
     d="m 801.5,301.9 c -10.7,2.6 -20.7,10.7 -25.7,20.9 -2.9,5.9 -3.3,7.5 -3.2,14.7 0.1,11.6 2.9,18.2 11.3,26.6 5.7,5.7 7.6,6.8 13.9,8.9 5.9,1.8 8.5,2.2 14,1.7 13.4,-1.3 25.6,-10 31.4,-22.3 2.8,-6 3,-7.1 2.6,-15.3 -0.5,-11.4 -4.3,-19.6 -12.2,-26.8 -8.3,-7.6 -21.3,-11 -32.1,-8.4 z m 22.6,10.7 c 9.6,5.2 15.8,17 14.6,27.6 -2.1,17.6 -21.8,30.4 -39,25.4 -4.4,-1.3 -6.9,-2.9 -11.1,-7 -6.1,-6.2 -8.6,-12 -8.6,-20.5 0,-21.1 25.3,-35.6 44.1,-25.5 z" />
  <path
     style="fill:#767171;stroke:none;stroke-width:0.1;fill-opacity:1"
     inkscape:connector-curvature="0"
     id="path16"
     d="m 850.1,406 c -15.6,9.3 -28.8,17.3 -29.3,17.8 -0.6,0.6 -0.2,2.1 0.9,3.9 l 1.8,3.1 13.4,-8 c 9.6,-5.7 13.7,-7.6 14.6,-6.8 0.6,0.5 2,2.8 3,4.9 l 1.8,4 -8.7,16.1 -8.6,16.1 2.4,4.1 2.4,4 6.7,-12.8 c 6,-11.4 10.2,-19.1 11.1,-20.3 0.2,-0.2 2.1,1.2 4.3,3.2 9,8.1 22.8,5.1 28.2,-6.1 2,-4.1 2.1,-5 1.1,-10 -1.5,-7.3 -13.1,-29.1 -15.7,-29.8 -0.6,-0.1 -13.8,7.3 -29.4,16.6 z m 32.4,1.1 c 7.2,12.1 7.2,18.7 0.2,22.9 -5,3.1 -9,2.6 -13.6,-1.5 -3.4,-3.1 -10.8,-14 -11.4,-16.8 -0.2,-0.8 17.6,-12.4 19.5,-12.6 0.3,-0.1 2.7,3.5 5.3,8 z" />
  <path
     style="fill:#767171;stroke:none;stroke-width:0.1;fill-opacity:1"
     inkscape:connector-curvature="0"
     id="path18"
     d="m 894.5,483.2 c -15.9,9.4 -29.1,17.2 -29.3,17.4 -0.4,0.2 0.8,2.5 2.7,5.3 0.7,1.1 3.5,-0.1 14,-6.2 7.1,-4.3 13.4,-7.7 13.8,-7.7 0.5,0 2.7,3 4.8,6.7 4.6,7.9 9.7,13.8 13.6,15.9 8.4,4.3 21.2,-0.4 25.1,-9.2 2.3,-5.4 1.9,-11.3 -1.4,-17.9 -4.1,-8.3 -12.3,-21.5 -13.3,-21.5 -0.5,0 -14,7.7 -30,17.2 z m 33.4,0.4 c 5.9,10.2 6.5,15.7 2.4,20.4 -2.4,2.6 -3.9,3.3 -7.9,3.7 -4.3,0.4 -5.4,0.2 -8.1,-2.1 -2.9,-2.5 -11.3,-15.4 -11.3,-17.5 0,-1 17.7,-12 19.5,-12 0.6,-0.1 3,3.3 5.4,7.5 z" />
  <path
     style="fill:#767171;stroke:none;stroke-width:0.1;fill-opacity:1"
     inkscape:connector-curvature="0"
     id="path20"
     d="m 939.9,557.5 c -16.2,9.6 -29.8,17.6 -30.3,17.8 -0.7,0.2 0.6,3.1 3.1,6.6 0.1,0.2 6.6,-3.3 14.3,-7.9 7.8,-4.5 14.5,-7.9 14.9,-7.4 0.4,0.5 4.3,7 8.6,14.4 4.3,7.4 8.4,14.4 9.2,15.6 1.2,2 0.6,2.5 -12.7,10.3 -7.7,4.6 -14,8.5 -14,8.7 0,1.4 3.2,6.5 3.9,6.2 0.4,-0.2 14.1,-8.2 30.4,-17.8 l 29.6,-17.5 -2,-3 c -1,-1.7 -2.5,-2.9 -3.1,-2.7 -0.7,0.2 -5.1,2.6 -9.8,5.4 -4.7,2.8 -9.9,5.9 -11.7,7 l -3.2,1.9 -9.5,-16.1 c -5.3,-8.9 -9.6,-16.4 -9.6,-16.8 0,-0.4 5,-3.6 11,-7.1 15.5,-9 14.6,-8.1 12.3,-11.9 l -1.9,-3.1 z" />
  <path
     style="fill:#767171;stroke:none;stroke-width:0.1;fill-opacity:1"
     inkscape:connector-curvature="0"
     id="path22"
     d="m 864.5,648.4 c -10.4,4.8 -15.5,13 -15.5,24.7 0,12.2 5.2,20.4 15.9,25.2 6,2.6 17.6,2.6 25.1,0 l 5.5,-1.9 0.3,-13.2 0.3,-13.2 H 887 c -8.9,0 -9,0 -9,2.5 0,2.4 0.3,2.5 6,2.5 h 6 v 9 8.9 l -3.7,1 c -5.4,1.5 -14.5,1.3 -18.6,-0.4 -4.5,-1.8 -9.4,-6.7 -11.2,-11.2 -0.8,-2 -1.5,-6.1 -1.5,-9.3 0,-6.9 1.8,-11.7 6.1,-15.9 7.3,-7.4 19.4,-8.2 28.1,-1.9 1.4,1 2.1,0.9 3.8,-0.7 l 2.2,-2 -2.6,-2.2 c -5.7,-4.9 -19.7,-5.9 -28.1,-1.9 z" />
  <path
     style="fill:#767171;stroke:none;stroke-width:0.1;fill-opacity:1"
     inkscape:connector-curvature="0"
     id="path24"
     d="m 107,673 v 26 h 2.5 2.5 l 0.1,-22.3 c 0,-15.4 0.3,-21.7 1,-20.7 0.6,0.8 5,10.7 9.8,22 6.7,15.6 9.2,20.6 10.7,20.8 1.6,0.2 3.4,-3.3 11.4,-22 l 9.5,-22.3 0.3,22.2 0.2,22.3 h 3 3 v -26.1 -26 l -4.6,0.3 -4.6,0.3 -8.5,19.5 c -4.6,10.7 -8.8,19.9 -9.2,20.3 -0.8,0.8 -4.4,-7 -14.7,-31 l -3.9,-9.3 h -4.2 -4.3 z" />
  <path
     style="fill:#767171;stroke:none;stroke-width:0.1;fill-opacity:1"
     inkscape:connector-curvature="0"
     id="path26"
     d="m 279,673 v 26 h 2.5 2.5 v -26 -26 h -2.5 -2.5 z" />
  <path
     style="fill:#767171;stroke:none;stroke-width:0.1;fill-opacity:1"
     inkscape:connector-curvature="0"
     id="path28"
     d="M 403,672.9 V 699 h 2.5 2.5 l 0.2,-22.2 0.3,-22.1 15.5,22.1 15.5,22.2 h 3.7 3.8 v -26 -26 h -3 -3 v 22.1 22.2 l -15.3,-21.9 c -14.9,-21.2 -15.5,-21.9 -19,-22.2 l -3.7,-0.3 z" />
  <path
     style="fill:#767171;stroke:none;stroke-width:0.1;fill-opacity:1"
     inkscape:connector-curvature="0"
     id="path30"
     d="m 565,673 v 26 h 2.5 2.5 v -26 -26 h -2.5 -2.5 z" />
  <path
     style="fill:#767171;stroke:none;stroke-width:0.1;fill-opacity:1"
     inkscape:connector-curvature="0"
     id="path32"
     d="M 689,672.9 V 699 h 2.5 2.5 l 0.2,-22.2 0.3,-22.1 15.5,22.1 15.5,22.2 h 3.7 3.8 v -26 -26 h -3 -3 v 22.1 22.2 l -15.3,-21.9 c -14.9,-21.2 -15.5,-21.9 -19,-22.2 l -3.7,-0.3 z" />
</svg>
